<svg t="1708527119681" viewBox="0 0 1024 1024" version="1.1" xmlns="http://www.w3.org/2000/svg" p-id="9129"
     width="128" height="128">
  <path
    d="M896 725.333333a42.666667 42.666667 0 0 1 42.666667 42.666667v128a42.666667 42.666667 0 0 1-42.666667 42.666667H469.333333a42.666667 42.666667 0 0 1-42.666666-42.666667v-128a42.666667 42.666667 0 0 1 42.666666-42.666667zM341.333333 128a42.666667 42.666667 0 0 1 0 85.333333H170.666667v256h170.666666a42.666667 42.666667 0 0 1 0 85.333334H170.666667v256h170.666666a42.666667 42.666667 0 0 1 0 85.333333H128a42.666667 42.666667 0 0 1-42.666667-42.666667V170.666667a42.666667 42.666667 0 0 1 37.546667-42.666667H341.333333z m512 682.666667h-341.333333v42.666666h341.333333z m42.666667-405.333334a42.666667 42.666667 0 0 1 42.666667 42.666667v128a42.666667 42.666667 0 0 1-42.666667 42.666667H469.333333a42.666667 42.666667 0 0 1-42.666666-42.666667v-128a42.666667 42.666667 0 0 1 42.666666-42.666667z m-42.666667 85.333334h-341.333333v42.666666h341.333333zM896 85.333333a42.666667 42.666667 0 0 1 42.666667 42.666667v128a42.666667 42.666667 0 0 1-42.666667 42.666667H469.333333a42.666667 42.666667 0 0 1-42.666666-42.666667V128a42.666667 42.666667 0 0 1 42.666666-42.666667z m-42.666667 85.333334h-341.333333v42.666666h341.333333z"
    p-id="9130"></path>
</svg>
